<?xml version="1.0" standalone="no"?><!DOCTYPE svg PUBLIC "-//W3C//DTD SVG 1.1//EN" "http://www.w3.org/Graphics/SVG/1.1/DTD/svg11.dtd"><svg t="1619330916771" class="icon" viewBox="0 0 1027 1024" version="1.1" xmlns="http://www.w3.org/2000/svg" p-id="17888" xmlns:xlink="http://www.w3.org/1999/xlink" width="200.5859375" height="200"><defs><style type="text/css">@font-face { font-family: element-icons; src: url("chrome-extension://moombeodfomdpjnpocobemoiaemednkg/fonts/element-icons.woff") format("woff"), url("chrome-extension://moombeodfomdpjnpocobemoiaemednkg/fonts/element-icons.ttf ") format("truetype"); }
</style></defs><path d="M180.818944 798.8224a35.84 35.84 0 1 1 0 71.5776H37.612544a35.84 35.84 0 1 1 0-71.5776h143.2064z m809.1136 0a35.84 35.84 0 1 1 0 71.5776H284.857344a35.84 35.84 0 1 1 0-71.5776H989.932544zM180.818944 477.9008a35.84 35.84 0 1 1 0 71.6288H37.612544a35.84 35.84 0 1 1 0-71.6288h143.2064z m809.1136 0a35.84 35.84 0 1 1 0 71.6288H284.806144a35.84 35.84 0 1 1 0-71.6288H989.932544zM180.818944 153.6a35.84 35.84 0 1 1 0 71.5776H37.612544A35.84 35.84 0 1 1 37.612544 153.6h143.2064zM989.932544 153.6a35.84 35.84 0 1 1 0 71.5776H284.806144a35.84 35.84 0 1 1 0-71.5776H989.932544z" p-id="17889"></path></svg>